<?xml version="1.0" encoding="UTF-8"?>
<svg id="Layer_2" data-name="Layer 2" xmlns="http://www.w3.org/2000/svg" viewBox="0 0 813.48 748.25">
  <defs>
    <style>
      .cls-1 {
        letter-spacing: -.02em;
      }

      .cls-2 {
        fill: #fffcf2;
      }

      .cls-3 {
        fill: #403d39;
      }

      .cls-4 {
        fill: none;
        stroke: #403d39;
        stroke-linecap: round;
        stroke-miterlimit: 10;
        stroke-width: 6px;
      }

      .cls-5 {
        letter-spacing: 0em;
      }

      .cls-6 {
        fill: #eb5e28;
      }

      .cls-7 {
        fill: #252422;
        font-family: MontserratRoman-SemiBold, Montserrat;
        font-size: 72px;
        font-variation-settings: 'wght' 600;
      }
    </style>
  </defs>
  <g id="Layer_1-2" data-name="Layer 1">
    <g>
      <g id="Book">
        <path class="cls-2" d="M394.81,635.8c-97.7-73.45-205.81-99.78-322.49-103.27V0c43.25,7.96,85.88,13.75,127.45,23.92,67.46,16.5,129.42,45.4,180.8,93.41,6.86,6.41,13.59,17.21,13.64,26.02,.81,162.37,.59,324.74,.59,492.45Z"/>
        <path class="cls-2" d="M735.54,2.6V532.24c-115.3,4.16-223.7,29.21-320.51,102.11-.71-11.02-1.6-18.52-1.61-26.02-.08-151.8,.25-303.6-.47-455.4-.09-18,5.56-29.94,19.04-41.26,70.91-59.53,154.4-88.54,244.26-102.43,18.84-2.91,37.91-4.29,59.29-6.64Z"/>
        <path class="cls-6" d="M.78,311.41c0-84.04-.27-168.07,.35-252.11,.07-10.04-7.13-26.7,13.87-26.75,24.75-.06,37.19,9.65,37.21,29.2,.09,153.53,.45,307.06-.4,460.58-.12,21.85,5.55,29.39,28.35,29.64,102.11,1.15,198.02,25.11,283.48,83.49,13.8,9.43,27.19,27.34,40.63,27.21,13.65-.13,26.86-18.14,40.73-27.63,80.35-54.93,170.43-78.75,266.6-83,50.03-2.21,42.76,3.8,42.84-43.27,.26-147.87,.08-295.74,.11-443.61,0-20.32,25.09-39.99,43.06-31.93,5.46,2.45,9.49,14.07,9.58,21.55,.75,62.21,.43,124.43,.43,186.65,0,107.47-.35,214.94,.34,322.41,.12,18.18-4.94,26.74-23.58,31.96-101.66,28.48-202.96,58.27-304.08,88.61-9.28,2.78-18.74,11.18-24.14,19.54-21.46,33.21-83.45,33.35-104.81,.39-5.76-8.88-16.19-17.44-26.19-20.45-101.11-30.42-202.43-60.18-304.07-88.74-17.34-4.87-20.59-13.73-20.51-29.22,.42-84.84,.2-169.69,.2-254.53Z"/>
      </g>
      <g id="Girl">
        <path class="cls-3" d="M569.71,211.67c10.19-.5,16.91,6.74,22.83,14.56,1.54,2.04,1.42,8.23-.18,10.24-8.23,10.34-5.82,20.6,6.67,24.97,2.54,.89,5.49,1.24,8.06,.74,21.59-4.22,17.22,.82,21.88,18.14,5.34,19.83,5.89,39.24-1.64,61.82,12.29-5.29,21.15-9.71,30.37-12.89,7.73-2.67,15.81-4.44,23.87-5.63,7.41-1.09,12.06,3.39,12.13,11.99,.11,13.47-.25,26.94-.59,40.4-.73,29.51,3.09,34.98,28.73,40.79,.95,.21,1.85,.74,5.38,2.19-16.25,1.84-29.95,3.4-47.35,5.37,12.5-27.35-7.95-49.16-4.72-74-.79-.88-1.58-1.77-2.36-2.65-8.64,6.61-17.36,13.1-25.91,19.86-6.88,5.44-12.84,13.6-20.48,16.29-12.03,4.23-20.83,12.1-28.8,22.05-12.05,15.05-25.74,25.95-44.71,28.79-36.51,5.46-72.79,12.54-109.8,17.19,5.13-3.06,10.52-5.69,15.3-9.31,3.87-2.93,6.73-7.5,10.57-10.48,2.71-2.11,7.33-4.98,9.36-3.75,10.39,6.29,20.38,4.72,29.58-.65,14.88-8.68,29.21-17.61,47.41-13.59,3.26,.72,8.69-3.37,10.91-6.99,8.77-14.33,16.82-29.25,24.85-44.15,7.98-14.79,14.03-30.35,11.35-48.63-.88-5.99-2.05-11.94-3.53-20.45,7.27-3.58,15.85-7.8,25.9-12.74l-1.66-14.65c-9.22,.06-17.82,.11-26.91,.17,.08,.69,.68,2.61,.41,4.34-.55,3.48-1.24,9.59-2.46,9.74-3.64,.44-8.68-.12-11.15-2.73-6.51-6.86-11.87-15.09-17.84-22.62-2.93-3.7-6.19-7.08-9.3-10.6-1.05,1.06-2.1,2.12-3.15,3.18,4.75,6.22,9.16,12.84,14.34,18.56,6.93,7.63,13.28,15.41,11.82,27.08-.97,7.71-5.03,12.96-12.56,11.63-6.38-1.13-12.37-3.88-10.14-13.55,4.37,2.1,8.72,4.19,13.07,6.28,.37-1.17,.75-2.35,1.12-3.52-1.63-.47-3.26-.94-4.34-1.25,.54-4.9,1.09-9.82,1.64-14.73-8.73,11.22-10.49,11.64-19.08,2.74l8.11-.92c-4.98-10.17-6.53-20.93-17.64-25.4-6.05-2.43-9.27-10.25-6.2-17.46,2.12-4.98,6.6-8.63,11.11-14.22-14.27-14.93-32.48-27.82-54.38-34.17,2.08,.18,4.17,.35,6.25,.53,.21-.49,.43-.99,.64-1.48-4.25-2.45-8.5-4.89-13.49-7.77,7.12-10.07,13.34-4.36,19.55,.5,19.01,14.84,38.01,29.68,57.02,44.51,3.71,5.31,6.26,3.63,7.73-1.68,1.08-3.89,1.61-7.99,2.39-11.99Zm55.21,136.35c-6.36,1.42-14.77,3.1-23.06,5.3-1.62,.43-3.68,2.64-3.97,4.41-.94,5.7-3.47,14.42-1.17,16.81,4.94,5.12,12.51,7.02,16.23,8.86,4.82-14.24,8.72-25.77,11.97-35.38Z"/>
        <path class="cls-3" d="M569.71,211.67c-.78,4-1.31,8.1-2.39,11.99-1.47,5.3-4.01,6.99-7.73,1.68-1.98-3.01-3.97-6.03-6.06-9.2,3.57-9.04,8.66-11.62,16.17-4.47Z"/>
      </g>
      <g id="MAn">
        <path class="cls-3" d="M189.53,395.61c2-4.36,3.78-8.68,5.92-12.81,1.69-3.26,1.94-6.62,1.68-10.12-.66-8.94-3.04-17.51-6.04-25.88-2.5-6.98-5.48-13.79-8.2-20.69-.21-.54-.23-1.34,.02-1.84,3.84-7.85,6.23-16.12,7.41-24.75,.09-.63,.22-1.24,.32-1.87,.01-.07-.01-.15-.04-.48-.86,2.37-1.63,4.54-2.43,6.7-5.35,14.33-12.55,27.65-21.58,40.01-2.86,3.91-5.58,7.98-7.82,12.27-2.98,5.7-4.42,12-5.46,18.33-.62,3.77-.63,7.63-1.07,11.43-1.24,10.71-2.38,21.44-3.9,32.11-1.53,10.75-3.45,21.45-5.28,32.16-.27,1.57-.28,3.01,.23,4.52,.3,.89,.53,1.85,.56,2.78,.13,4.29,1.76,8.16,3.41,11.99,1.63,3.77,3.45,7.45,5.27,11.13,1.21,2.46,1.51,5.08,1.49,7.72-.02,3.51-.29,7.02-.39,10.53-.12,4.11-.14,8.21-.26,12.32-.03,1.18-.11,2.38-.41,3.51-.39,1.48-1.64,1.89-2.97,1.09-.37-.22-.73-.49-1.01-.81-2.52-2.9-4.14-6.1-3.77-10.11,.42-4.49,.52-8.98-.1-13.7-.26,.35-.41,.54-.54,.73-1.03,1.49-2.06,2.97-3.08,4.47-.24,.35-.55,.7-.63,1.09-.89,4.07-1.31,8.18-.89,12.36,.14,1.39,.68,2.45,1.71,3.38,.67,.6,1.27,1.3,1.77,2.05,.67,1.02,.52,1.65-.66,1.99-1.96,.57-3.98,.95-5.99,1.34-1.68,.33-3.22,.03-4.72-.94-1.78-1.16-3.74-2.05-5.59-3.11-1.35-.77-2.69-1.46-4.31-1.42-.32,0-.81-.23-.94-.49-2.69-5.33-5.42-10.69-6.26-16.67-.36-2.54,.09-5.19,.19-7.79,.21-5.27,1.01-10.45,2.4-15.54,1.34-4.9,1.36-9.93,1.2-14.95-.44-14.27-2.23-28.42-3.9-42.57-1.96-16.64-1.46-33.21,1.55-49.68,.77-4.23,1.86-8.4,2.81-12.6,.09-.41,.25-.81,.43-1.39,1.81,2.26,3.56,4.36,6.22,6-1.06-1.54-1.9-2.81-2.8-4.04-2.14-2.94-2.87-6.15-2.59-9.8,.61-7.94,1.99-15.74,3.56-23.54,.73-3.63,1.09-7.33,1.57-11,1.71-13.11,6.16-25.12,14.42-35.56,1.95-2.46,4.21-4.69,6.53-7.24,1.26,2.42,2.35,4.52,3.45,6.63,.07-.02,.14-.05,.21-.07-.22-.97-.45-1.95-.66-2.92-1.65-7.71-2.36-15.45-.93-23.29,1.84-10.13,7.07-18.04,15.54-23.84,7.05-4.83,14.98-7.4,23.27-8.93,1.28-.24,2.88,.24,4.09,.86,3.92,2.03,7.8,4.16,11.55,6.47,3.2,1.98,6.22,4.26,9.36,6.36-5.37-6.71-12.16-11.69-19.77-16.06,.9-.49,1.64-.98,2.44-1.32,1.09-.46,2.19-1,3.34-1.18,3.8-.59,6.94-2.75,10.38-4.18,7.84-3.26,15.99-5.43,24.29-7.08,.11-.02,.23,0,.47,0,.15,.49,.29,1.01,.46,1.53,.28,.9,.58,1.8,.86,2.71,1.06,3.48,3.09,5.81,6.96,6.09,2.36,.17,4.71,.4,7.38,.64-.09,1.79,0,3.49-.31,5.11-.22,1.2,.15,1.92,1.01,2.52,1.79,1.23,3.61,2.42,5.42,3.61,3.95,2.6,7.7,5.45,10.44,9.36,1.43,2.05,2.53,4.34,3.78,6.52,2.06-2.09,4.18-4.38,6.44-6.52,2.32-2.2,4.72-4.32,7.19-6.35,1.02-.84,2.34-1.31,3.43-2.07,2.16-1.51,4.37-2.97,6.34-4.71,2.04-1.79,3.81-3.88,5.78-5.91,6.58,6.07,13.18,12.16,19.94,18.39-6.38,.02-12.67,.1-18.79,1.98,.74-.02,1.48-.04,2.21-.07,.79-.03,1.58-.11,2.37-.1,4.5,.05,9,.05,13.5,.22,2.86,.11,5.64,.71,8.19,2.13,.86,.48,1.76,.93,2.69,1.22,4.01,1.26,6.61,4.18,8.91,7.44,4.2,5.95,6.3,12.69,7.36,19.81,1.45,9.74,1,19.47-.53,29.16-.75,4.75-1.86,9.45-2.85,14.17-.76,3.61-2.71,6.44-5.76,8.52,.06,.11,.13,.21,.19,.32,2.05-1.14,4.11-2.27,6.28-3.48,.65,3.6,1.43,7.3,1.99,11.04,2.06,13.6,3.14,27.3,4.1,41.01,.14,2.07,.69,4.11,1.09,6.16,1.81,9.27,2.49,18.65,2.26,28.06-.31,13.03-.92,26.06-1.46,39.08-.54,13.11-.82,26.23-.02,39.33,.54,8.86,1.39,17.71,2.13,26.56,.09,1.02,.26,2.05,.56,3.02,.48,1.58,.32,3.07-.45,4.47-2.89,5.25-5.81,10.48-8.76,15.7-.33,.59-.89,1.11-1.46,1.5-3.05,2.12-6.15,4.17-9.2,6.28-2.22,1.54-4.81,1.96-7.36,2.42-1.19,.22-.98-.78-.93-1.52-.8,.08-1.58,.31-2.27,.17-.75-.15-1.56-.54-2.06-1.08-.17-.18,.53-1.17,.86-1.83-.28-.04-.8-.08-1.29-.21-1.62-.41-2.09-1.77-1.03-3.06,1.25-1.51,2.78-2.48,4.84-2.18,1.41,.21,2.53-.34,3.59-1.19,1.35-1.09,2.68-2.21,4.12-3.17,2.71-1.81,3.89-4.4,4.41-7.51,.38-2.28,1.04-4.51,1.67-6.74,.18-.62,.22-1.05-.36-1.41-.2-.12-.37-.3-.57-.43-2.79-1.87-4.48-1.08-5,2.24-.64,4.08-1.79,8.01-3.67,11.71-1.07,2.09-2.7,3.6-4.89,4.43-1.99,.75-3.35,0-3.54-2.1-.13-1.55-.07-3.18,.25-4.7,1.07-5.14,2.3-10.25,3.45-15.37,.08-.37,.15-.78,.08-1.15-1.49-8.88,1.44-16.33,7.4-22.77,.57-.62,.77-1.17,.67-1.98-.78-6.4-2.76-12.48-5.02-18.47-2.77-7.35-5.81-14.61-8.5-21.99-4.96-13.65-8.13-27.72-8.97-42.26-.37-6.36-.29-12.72,.6-19.04,.09-.65,.42-1.35,.85-1.85,3.02-3.48,5.53-7.21,6.38-11.84,.03-.17,.03-.35,.03-.3-1.9,2.78-3.89,5.67-6.07,8.84-2.19-3.6-3.05-7.18-3.51-10.83-.46-3.66-.66-7.36-.98-11.15-.67,1.5-1.33,2.96-1.98,4.42-1.62,3.65-3.25,7.29-4.83,10.95-.2,.47-.27,1.07-.21,1.58,1.54,13.18,1.11,26.35-.37,39.5-.34,3.03-1.21,6.04-2.13,8.97-1,3.21-1.33,6.35-.12,9.51,.55,1.44,.28,2.58-.56,3.83-3.43,5.13-8.19,8.48-13.92,10.56-4.38,1.59-8.93,2.35-13.59,2.36-.57,0-1.27-.21-1.69-.58-9.58-8.3-20.2-15.03-31.31-21.03-14.62-7.9-29.83-14.47-45.52-19.93-.22-.08-.43-.18-.74-.31Zm86.25-122.9c-.09,.01-.17,.03-.26,.04-1.33,4.91-2.66,9.83-4,14.74-3.02,11.09-10.15,17.83-21.41,20.15-8.23,1.69-16.43,1.17-24.57-.66-1.16-.26-2.34-.8-3.3-1.5-2.23-1.63-4.45-3.31-6.45-5.19-6.33-5.95-12.56-12.01-18.83-18.03-.26-.25-.53-.49-.79-.73-.08,.07-.16,.14-.23,.21,.16,.23,.29,.48,.47,.7,2.63,3.16,5.15,6.41,7.92,9.44,4.45,4.87,8.97,9.67,13.64,14.31,1.59,1.58,3.54,3.14,5.62,3.81,9.32,3,18.89,3.79,28.53,1.74,9.38-1.99,16.68-6.97,21.11-15.69,.91-1.78,1.61-3.67,2.44-5.59,.14,.39,.26,.71,.38,1.04,1.67,4.76,3.82,9.27,6.93,13.28,2.79,3.59,6.08,6.7,10.57,7.84,8.22,2.1,16.08,1.03,23.23-3.76,1.01-.68,1.89-1.69,2.53-2.74,3.87-6.26,6.61-13,8.49-20.11,.15-.57,.23-1.16,.35-1.75-.1-.03-.21-.06-.31-.09-.15,.33-.31,.66-.43,1-2.64,6.97-5.93,13.61-10.33,19.65-.52,.71-1.23,1.35-1.98,1.8-4.56,2.75-9.57,3.4-14.81,3.25-6.01-.18-10.4-3-13.83-7.7-2.25-3.09-4.1-6.42-5.24-10.05-1.7-5.42-3.1-10.93-4.62-16.41-.28-1.01-.54-2.02-.82-3.03Zm-7.33,106.45c-.08-.12-.16-.23-.25-.35-3.61,1.93-7.39,1.77-11.21,.98-2.47-.51-4.94-1.05-7.42-1.53-.78-.15-1.2-.51-1.53-1.24-1.32-2.91-2.64-5.83-4.12-8.66-2.16-4.13-4.46-8.19-7.89-11.46-.51-.49-1.12-.88-1.68-1.32,.45,1.67,1.16,3.11,1.78,4.58,2.89,6.96,5.75,13.93,8.66,20.88,.2,.47,.69,1.04,1.13,1.15,4.17,.95,8.4,1.46,12.69,1.34,3.16-.09,6.09-.88,8.55-2.97,.48-.41,.87-.93,1.3-1.41Zm-26.63-30.28c-.09,.09-.18,.17-.27,.26,.26,.51,.47,1.05,.78,1.53,2.64,4.14,6.22,7.21,10.6,9.37,2.18,1.07,4.44,2.03,6.9,1.89,4.69-.25,8.02-2.78,10.4-6.68,.15-.24,.18-.55,.35-1.06-1.61,.76-2.98,1.43-4.38,2.05-3.41,1.51-6.81,1.85-10.26,.02-4.04-2.15-8.13-4.21-12.19-6.32-.65-.34-1.29-.7-1.93-1.06Zm3.59-10.25c2.65-1.2,4.99,0,7.41,.63,2.81,.74,5.64,1.61,8.52,1.87,6.6,.59,11.58-4.08,11.69-10.62,0-.54-.13-1.08-.2-1.62-.82,.86-1.3,1.76-1.86,2.6-2.4,3.66-5.57,5.73-10.16,4.91-1.98-.36-3.97-.72-5.97-.85-1.91-.13-3.86-.15-5.75,.1-1.67,.22-3.02,1.21-3.68,2.99Zm51.72,6.03c.25-.23,.34-.27,.36-.34,.06-.19,.11-.38,.14-.57,.3-2.37-.74-4.23-2.32-5.83-2.9-2.92-6.63-4.04-10.55-4.59-1.44-.2-2.66-.68-3.78-1.51-.86-.63-1.66-1.33-2.5-1.99-.25-.19-.54-.34-.91-.56,.17,3.1,2.23,7.8,6.94,8.72,1.97,.38,3.92,.92,5.84,1.51,2.85,.87,5.4,2.2,6.79,5.16Zm-22.32,35.08c.52,.39,.71,.58,.93,.7,4.96,2.59,9.93,2.48,14.85-.09,.39-.2,.71-.7,.87-1.14,.87-2.3,1.8-4.56,3.64-6.29,.46-.43,.99-.79,1.49-1.18-.05-.15-.09-.31-.14-.46-.97,.13-1.98,.12-2.89,.41-2.15,.69-3.69,2.21-5.01,3.99-.25,.34-.54,.77-.9,.88-2.51,.79-5.03,1.58-7.59,2.24-1.62,.42-3.29,.6-5.26,.95Zm-.36-24.2c-.05,.12-.09,.25-.14,.37,1.71,2.29,3.75,4.16,6.75,4.59,2.97,.42,5.96,.75,8.94,1.02,2.55,.23,4.35-1.22,6.06-2.95-1.05-.19-2.09-.19-3.12-.27-.66-.05-1.42-.02-1.95-.34-2.88-1.72-6.03-1.89-9.24-1.86-1.56,.01-3.12-.04-4.68-.14-.88-.06-1.74-.28-2.61-.42Z"/>
        <path class="cls-3" d="M269.78,232.92c-2.03-5.94-6.22-9.82-11.07-13.11-1.96-1.33-3.97-2.58-5.97-3.86-.97-.63-1.4-1.35-1.18-2.65,.38-2.2,.44-4.46,.65-6.82-1.38-.02-2.56,.05-3.72-.06-2.43-.24-4.87-.49-7.28-.88-1.84-.3-3.13-1.46-3.92-3.13-.5-1.07-.94-2.17-1.35-3.28-1.27-3.36-2.45-6.75-3.78-10.09-1.67-4.22-2.55-8.61-3.23-13.07-.48-3.15-1.39-6.26-1.64-9.43-.32-4.19-.18-8.42-.25-12.79,4.31,.76,8.32,1.72,12.65,.69-3.31-3.8-7.52-5.01-12.4-5.34,.35-4.05,.46-8.12,1.11-12.11,.93-5.64,2.41-11.2,3.35-16.84,.34-2.03-.19-4.21-.42-6.31-.04-.35-.55-.76-.94-.94-.56-.26-1.21-.35-1.92-.53,.95-1.88,2.15-3.55,3.74-4.93,.5-.44,1.01-.9,1.43-1.41,.91-1.13,.73-1.61-.93-2.09,3.52-3.3,7.81-4.99,11.94-6.99,4.15-2.01,8.45-3.51,13.06-4.05,.13-.16,.26-.31,.39-.47l-1.25-.76,.03-.35c1.14-.05,2.3-.29,3.4-.12,2.57,.4,5.11,1.01,7.66,1.51,.62,.12,1.24,.19,2.05,.32-.21-.55-.37-.97-.67-1.77,1.6,.6,3.02,.93,4.25,1.62,8.24,4.61,15.82,10.12,22.8,16.48,1.75,1.6,2.62,3.54,2.57,5.88-.02,1.04,.33,1.85,.87,2.72,2.45,3.96,3.91,8.25,3.23,12.95-.86,5.98-1.92,11.92-2.92,17.88-.12,.72,.07,1.31,.2,1.99,.32,1.79,.54,3.68,.32,5.48-.63,5.02-2.73,9.46-5.99,13.32-.8,.94-1.82,1.75-2.87,2.42-.96,.61-1.16,1.46-1.19,2.42-.07,2.57-.15,5.13-.11,7.7,.12,6.99,.28,13.98,.48,20.97,.01,.49,.35,1.11,.73,1.44,1.68,1.44,3.43,2.79,5.28,4.27-.88,.96-1.69,1.9-2.55,2.79-2.63,2.74-5.36,5.37-8.65,7.34-1.52,.91-3.31,1.49-4.59,2.65-3.46,3.16-6.72,6.55-10.05,9.86-.44,.44-.84,.93-1.36,1.51Zm-16.4-47.54c-.02-.16-.03-.32-.05-.48-1.96-.55-3.9-1.27-5.9-1.6-2.75-.46-5.55-.79-8.34-.86-1.53-.04-3.1,.52-4.61,.97-.46,.14-.83,.76-1.08,1.25-.05,.11,.53,.67,.9,.85,2.08,.99,3.88,2.89,6.53,2.14,.06-.02,.14,.09,.21,.1,1.57,.13,3.22,.64,4.68,.3,2.61-.62,5.1-1.75,7.65-2.66Zm11.06-28.62c-2.4-2.55-5.21-3.79-8.48-4.06-2.94-.24-4.3,.7-5.18,3.64,4.45,1.47,8.94,1.7,13.66,.43Z"/>
      </g>
      <text class="cls-7" transform="translate(0 728.6)"><tspan x="0" y="0">Fit</tspan><tspan class="cls-5" x="97.2" y="0">n</tspan><tspan x="146.59" y="0">ess</tspan></text>
      <text class="cls-7" transform="translate(513.93 729.6)"><tspan x="0" y="0">Chap</tspan><tspan class="cls-1" x="194.76" y="0">t</tspan><tspan x="223.99" y="0">er</tspan></text>
      <line class="cls-4" x1="6.48" y1="743.16" x2="353.48" y2="743.16"/>
      <line class="cls-4" x1="465.48" y1="743.16" x2="810.48" y2="743.16"/>
    </g>
  </g>
</svg>